<svg width="174" height="31" viewBox="0 0 174 31" fill="none" xmlns="http://www.w3.org/2000/svg">
<g clip-path="url(#clip0_1003_2099)">
<path d="M45.8736 28.148C46.471 28.148 47.0021 28.0816 47.4005 27.9488C47.7988 27.816 48.1307 27.6169 48.3963 27.3513C48.6618 27.0858 48.7946 26.8202 48.9273 26.4883C49.0601 26.1564 49.0601 25.8244 49.0601 25.4925C49.0601 25.0942 48.9937 24.7623 48.861 24.4967C48.7282 24.1648 48.529 23.9656 48.2635 23.7001C47.9979 23.5009 47.666 23.3017 47.2677 23.2354C46.8694 23.1026 46.4046 23.0362 45.8072 23.0362H42.5542V28.148H45.8736ZM42.5542 15.7336V20.779H45.1433C46.2719 20.779 47.0685 20.5799 47.666 20.1816C48.2635 19.7832 48.529 19.1194 48.529 18.2563C48.529 17.3269 48.2635 16.7294 47.7324 16.3311C47.2013 15.9328 46.4046 15.7336 45.3425 15.7336H42.5542ZM45.3425 13.2109C46.471 13.2109 47.4668 13.3437 48.2635 13.5429C49.0601 13.742 49.724 14.074 50.2551 14.4723C50.7862 14.8706 51.1845 15.3353 51.3837 15.9328C51.6492 16.5303 51.7156 17.1278 51.7156 17.858C51.7156 18.2563 51.6492 18.6547 51.5164 19.053C51.3837 19.4513 51.1845 19.7832 50.9853 20.1152C50.7198 20.4471 50.3879 20.7127 49.9895 20.9782C49.5912 21.2438 49.1265 21.4429 48.5954 21.6421C50.9853 22.1732 52.1803 23.5009 52.1803 25.5589C52.1803 26.2892 52.0475 26.953 51.782 27.6169C51.5164 28.2144 51.1181 28.8119 50.5206 29.2102C49.9895 29.6749 49.3257 30.0068 48.529 30.2724C47.7324 30.5379 46.8694 30.6707 45.8072 30.6707H39.2349V13.2109H45.3425Z" fill="white"/>
<path d="M65.1922 18.3232V30.6712H63.3997C63.0014 30.6712 62.7358 30.472 62.6695 30.1401L62.4039 29.1443C61.8728 29.6754 61.3417 30.0737 60.7442 30.4057C60.1468 30.7376 59.4165 30.8704 58.5535 30.8704C57.8896 30.8704 57.2921 30.7376 56.761 30.5384C56.2299 30.3393 55.8316 30.0073 55.4333 29.5426C55.1013 29.1443 54.8358 28.6132 54.6366 28.0821C54.4375 27.4846 54.3711 26.8871 54.3711 26.1569V18.3232H57.3585V26.1569C57.3585 26.8871 57.5577 27.4846 57.8896 27.883C58.2215 28.2813 58.7526 28.4804 59.4829 28.4804C60.014 28.4804 60.4787 28.3477 60.9434 28.1485C61.4081 27.9493 61.8064 27.6174 62.2047 27.2191V18.3232H65.1922Z" fill="white"/>
<path d="M71.1002 12.7461V23.0361H71.6313C71.8304 23.0361 71.9632 23.0361 72.096 22.9697C72.2288 22.9033 72.3615 22.8369 72.4279 22.6377L75.4817 18.8537C75.6145 18.6545 75.7473 18.5881 75.88 18.4554C76.0128 18.389 76.212 18.3226 76.4775 18.3226H79.1994L75.3489 22.9033C75.0834 23.2352 74.7515 23.5672 74.4859 23.7663C74.6851 23.8991 74.8178 24.0319 74.9506 24.1646C75.0834 24.2974 75.2162 24.4966 75.3489 24.6957L79.4649 30.6706H76.7431C76.4775 30.6706 76.2784 30.6042 76.1456 30.5378C75.9464 30.4714 75.8136 30.3386 75.7473 30.1395L72.5607 25.426C72.4279 25.2268 72.3615 25.0941 72.2288 25.0941C72.096 25.0277 71.8968 25.0277 71.6977 25.0277H71.0338V30.6706H68.0464V12.7461H71.1002Z" fill="white"/>
<path d="M84.1123 18.3226V30.6706H81.1249V18.3226H84.1123ZM84.5106 14.6713C84.5106 14.9369 84.4442 15.2024 84.3779 15.4016C84.2451 15.6007 84.1123 15.7999 83.9795 15.9991C83.7804 16.1982 83.5812 16.331 83.3821 16.3974C83.1165 16.5302 82.9174 16.5302 82.6518 16.5302C82.3863 16.5302 82.1207 16.4638 81.9215 16.3974C81.7224 16.2646 81.5232 16.1318 81.3241 15.9991C81.1249 15.7999 80.9921 15.6007 80.9257 15.4016C80.793 15.2024 80.793 14.9369 80.793 14.6713C80.793 14.4058 80.8594 14.1402 80.9257 13.9411C81.0585 13.6755 81.1913 13.4764 81.3241 13.3436C81.5232 13.1444 81.7224 13.0117 81.9215 12.9453C82.1207 12.8125 82.3863 12.8125 82.6518 12.8125C82.9174 12.8125 83.1829 12.8789 83.3821 12.9453C83.6476 13.078 83.8468 13.2108 83.9795 13.3436C84.1787 13.5428 84.3115 13.7419 84.3779 13.9411C84.5106 14.1402 84.5106 14.4058 84.5106 14.6713Z" fill="white"/>
<path d="M91.2822 30.8702C90.22 30.8702 89.357 30.5383 88.8259 29.9408C88.2284 29.3433 87.9628 28.4803 87.9628 27.4181V20.5139H86.7015C86.5687 20.5139 86.4359 20.4475 86.3032 20.3811C86.1704 20.2483 86.104 20.1155 86.104 19.9164V18.7214L88.0956 18.3895L88.6931 15.0038C88.7595 14.871 88.8259 14.7382 88.8923 14.6054C89.025 14.539 89.1578 14.4727 89.357 14.4727H90.8839V18.3895H94.2032V20.5139H90.8839V27.2189C90.8839 27.6173 90.9502 27.8828 91.1494 28.1484C91.3486 28.3475 91.6141 28.4803 91.9461 28.4803C92.1452 28.4803 92.278 28.4803 92.4108 28.4139C92.5435 28.3475 92.6763 28.3475 92.7427 28.2811C92.8091 28.2147 92.9419 28.2147 93.0082 28.1484C93.0746 28.082 93.141 28.082 93.2074 28.082C93.2738 28.082 93.3402 28.082 93.4066 28.1484C93.4729 28.2147 93.5393 28.2811 93.6057 28.3475L94.4688 29.808C94.004 30.14 93.5393 30.4719 92.9419 30.6047C92.4771 30.7374 91.8797 30.8702 91.2822 30.8702Z" fill="white"/>
<path d="M106.617 24.1648L104.227 17.7917C104.028 17.3269 103.829 16.6631 103.63 15.9328C103.564 16.3311 103.431 16.6631 103.364 16.995C103.232 17.3269 103.165 17.5925 103.099 17.858L100.709 24.1648H106.617ZM111.995 30.6707H109.804C109.538 30.6707 109.339 30.6043 109.206 30.4715C109.074 30.3388 108.941 30.206 108.874 30.0068L107.414 26.1564H99.9122L98.4517 30.0068C98.3853 30.1396 98.2526 30.3388 98.1198 30.4715C97.987 30.6043 97.7878 30.6707 97.5223 30.6707H95.3315L102.236 13.2773H105.09L111.995 30.6707Z" fill="white"/>
<path d="M120.891 20.5803C120.824 20.7131 120.758 20.7795 120.691 20.8458C120.625 20.9122 120.492 20.9122 120.36 20.9122C120.227 20.9122 120.094 20.8458 119.895 20.7795C119.762 20.7131 119.563 20.5803 119.297 20.5139C119.098 20.3811 118.833 20.3148 118.501 20.2484C118.235 20.182 117.837 20.1156 117.439 20.1156C117.107 20.1156 116.841 20.182 116.575 20.2484C116.31 20.3148 116.111 20.4475 115.912 20.5803C115.712 20.7131 115.58 20.9122 115.513 21.045C115.447 21.2442 115.381 21.4433 115.381 21.6425C115.381 21.908 115.447 22.1736 115.646 22.3727C115.845 22.5719 116.044 22.7047 116.376 22.9038C116.642 23.0366 116.974 23.1694 117.372 23.3022C117.77 23.4349 118.102 23.5677 118.501 23.6341C118.899 23.7669 119.297 23.8996 119.629 24.0988C120.028 24.298 120.36 24.4971 120.625 24.6963C120.891 24.9618 121.156 25.2274 121.355 25.5593C121.555 25.8912 121.621 26.356 121.621 26.8207C121.621 27.4181 121.488 27.9492 121.289 28.4139C121.09 28.8787 120.758 29.3434 120.36 29.6753C119.961 30.0072 119.43 30.3392 118.833 30.5383C118.235 30.7375 117.571 30.8703 116.775 30.8703C116.376 30.8703 115.912 30.8039 115.513 30.7375C115.115 30.6711 114.717 30.5383 114.385 30.4056C114.053 30.2728 113.721 30.14 113.389 29.9408C113.057 29.7417 112.791 29.5425 112.592 29.3434L113.19 28.3476C113.256 28.2148 113.323 28.1484 113.455 28.082C113.588 28.0156 113.721 27.9492 113.854 27.9492C114.053 27.9492 114.186 28.0156 114.385 28.082C114.518 28.2148 114.717 28.2812 114.982 28.4139C115.181 28.5467 115.447 28.6795 115.779 28.7459C116.111 28.8787 116.509 28.8787 116.974 28.8787C117.372 28.8787 117.704 28.8123 117.97 28.7459C118.235 28.6795 118.501 28.5467 118.7 28.3476C118.899 28.2148 119.032 28.0156 119.098 27.8165C119.165 27.6173 119.231 27.4181 119.231 27.1526C119.231 26.8207 119.165 26.5551 118.965 26.356C118.766 26.1568 118.567 25.9576 118.235 25.8249C117.97 25.6921 117.638 25.5593 117.239 25.4265C116.841 25.2938 116.509 25.161 116.111 25.0946C115.712 24.9618 115.314 24.8291 114.982 24.6299C114.584 24.4307 114.252 24.2316 113.986 23.966C113.721 23.7005 113.455 23.3685 113.256 23.0366C113.057 22.6383 112.991 22.1736 112.991 21.6425C112.991 21.1778 113.057 20.7131 113.256 20.2484C113.455 19.7837 113.721 19.3853 114.119 19.0534C114.517 18.7215 114.982 18.4559 115.513 18.2568C116.044 18.0576 116.708 17.9912 117.439 17.9912C118.235 17.9912 119.032 18.124 119.696 18.3895C120.36 18.6551 120.957 18.987 121.422 19.4517L120.891 20.5803Z" fill="white"/>
<path d="M130.649 25.2938C129.72 25.2938 128.923 25.4266 128.326 25.493C127.662 25.6257 127.197 25.7585 126.799 25.9577C126.4 26.1568 126.135 26.356 125.936 26.6215C125.737 26.8871 125.67 27.1526 125.67 27.4182C125.67 27.6837 125.737 27.9493 125.803 28.1484C125.869 28.3476 126.002 28.5468 126.201 28.6795C126.334 28.8123 126.533 28.8787 126.799 28.9451C126.998 29.0115 127.263 29.0115 127.529 29.0115C128.193 29.0115 128.79 28.8787 129.255 28.6131C129.72 28.3476 130.184 28.0157 130.649 27.4846V25.2938ZM123.745 20.0492C125.139 18.7879 126.799 18.124 128.724 18.124C129.454 18.124 130.052 18.2568 130.583 18.456C131.114 18.6551 131.579 18.9871 131.977 19.4518C132.375 19.8501 132.641 20.3812 132.84 20.9123C133.039 21.5098 133.105 22.1072 133.105 22.8375V30.6711H131.977C131.711 30.6711 131.512 30.6048 131.379 30.5384C131.247 30.472 131.114 30.3392 131.047 30.0737L130.782 29.0779C130.45 29.3434 130.184 29.609 129.853 29.8081C129.521 30.0073 129.255 30.2064 128.923 30.3392C128.591 30.472 128.259 30.6048 127.861 30.6711C127.463 30.7375 127.064 30.8039 126.6 30.8039C126.068 30.8039 125.604 30.7375 125.205 30.6048C124.807 30.472 124.409 30.2728 124.077 30.0073C123.745 29.7417 123.546 29.4098 123.347 28.9451C123.147 28.5468 123.081 28.0821 123.081 27.4846C123.081 27.0199 123.214 26.5552 123.479 26.0904C123.745 25.6257 124.143 25.2274 124.741 24.8955C125.338 24.5636 126.068 24.2316 127.064 24.0325C127.994 23.7669 129.189 23.6341 130.583 23.6341V22.8375C130.583 21.9745 130.384 21.3106 129.985 20.8459C129.587 20.3812 129.056 20.182 128.326 20.182C127.795 20.182 127.396 20.2484 127.064 20.3812C126.732 20.514 126.4 20.6467 126.201 20.7795C125.936 20.9123 125.737 21.045 125.537 21.1778C125.338 21.3106 125.139 21.377 124.94 21.377C124.741 21.377 124.608 21.3106 124.475 21.2442C124.342 21.1778 124.276 21.045 124.143 20.9123L123.745 20.0492Z" fill="white"/>
<path d="M136.16 30.6711V18.3896H137.753C138.085 18.3896 138.35 18.5223 138.417 18.8543L138.616 19.9165C138.815 19.6509 139.081 19.4518 139.346 19.1862C139.612 18.9871 139.877 18.7879 140.143 18.6551C140.408 18.5223 140.74 18.3896 141.006 18.2568C141.338 18.1904 141.67 18.124 142.068 18.124C142.466 18.124 142.798 18.1904 143.13 18.3232C143.462 18.456 143.728 18.5887 143.993 18.7879C144.259 18.9871 144.458 19.2526 144.657 19.5181C144.856 19.7837 144.989 20.182 145.122 20.514C145.321 20.1156 145.52 19.7173 145.852 19.3854C146.118 19.0534 146.45 18.8543 146.782 18.6551C147.114 18.456 147.512 18.3232 147.91 18.2568C148.308 18.1904 148.707 18.124 149.105 18.124C149.769 18.124 150.366 18.2568 150.898 18.456C151.429 18.6551 151.827 18.9871 152.225 19.3854C152.557 19.7837 152.823 20.2484 153.022 20.8459C153.221 21.4434 153.287 22.1072 153.287 22.8375V30.6711H150.698V22.8375C150.698 21.9745 150.499 21.3106 150.167 20.8459C149.769 20.3812 149.238 20.182 148.508 20.182C148.176 20.182 147.844 20.2484 147.578 20.3812C147.313 20.514 147.047 20.6467 146.848 20.8459C146.649 21.045 146.45 21.3106 146.317 21.6425C146.184 21.9745 146.118 22.3728 146.118 22.7711V30.6048H143.396V22.8375C143.396 21.9081 143.197 21.2442 142.865 20.8459C142.533 20.4476 142.002 20.182 141.271 20.182C140.807 20.182 140.342 20.3148 139.944 20.5803C139.545 20.8459 139.147 21.1778 138.815 21.5761V30.6711H136.16Z" fill="white"/>
<path d="M171.278 9.29379C171.278 9.55934 171.012 9.82489 170.747 9.82489C170.481 9.82489 170.216 9.55934 170.216 9.29379C170.216 9.02824 170.481 8.7627 170.747 8.7627C171.079 8.7627 171.278 8.96186 171.278 9.29379Z" fill="white"/>
<path d="M171.61 20.3143C171.61 20.0488 171.345 19.7832 171.079 19.7832C170.813 19.7832 170.548 20.0488 170.548 20.3143C170.548 20.5798 170.813 20.8454 171.079 20.8454C171.345 20.8454 171.61 20.5798 171.61 20.3143Z" fill="white"/>
<path d="M171.809 14.8709C171.809 14.6054 171.544 14.3398 171.278 14.3398C171.013 14.3398 170.747 14.6054 170.747 14.8709C170.747 15.1365 171.013 15.402 171.278 15.402C171.544 15.402 171.809 15.2029 171.809 14.8709Z" fill="white"/>
<path d="M172.539 10.29L171.676 10.9539C172.473 12.0825 172.938 13.4102 172.938 14.9371C172.938 16.464 172.407 17.8581 171.61 18.9867L172.473 19.6506C173.469 18.3229 174.066 16.7296 174.066 14.9371C174 13.2111 173.469 11.6178 172.539 10.29Z" fill="white"/>
<path d="M166.233 21.6423C166.233 21.6423 166.166 21.6423 166.233 21.6423V20.5137C168.822 20.5137 171.012 18.7212 171.61 16.3977H170.481C169.884 18.1901 168.224 19.4515 166.233 19.4515C163.776 19.4515 161.718 17.4599 161.718 14.9372C161.718 12.4145 163.71 10.4229 166.233 10.4229C168.224 10.4229 169.884 11.6842 170.481 13.4767H171.61C170.946 11.0867 168.822 9.36069 166.233 9.36069V8.23211C167.228 8.23211 168.158 8.43127 168.954 8.82959L169.419 7.83379C168.423 7.36908 167.361 7.16992 166.233 7.16992C161.917 7.16992 158.399 10.6884 158.399 15.0036C158.399 19.3187 161.917 22.8372 166.233 22.8372C167.693 22.8372 169.087 22.4389 170.282 21.7086L169.685 20.7792C168.689 21.2439 167.494 21.6423 166.233 21.6423Z" fill="white"/>
<path d="M16.2646 4.31515C16.2646 4.31515 22.6378 -0.265548 28.7454 5.5765C33.3261 9.95803 30.8034 21.1774 24.6294 21.1774C24.6294 21.1774 23.4344 21.443 20.447 20.0488C17.4596 18.6547 14.0075 17.7253 9.69233 20.3808C5.44357 23.1026 -0.66402 20.1152 0.0662356 9.22778C0.39817 4.0496 4.44777 0 4.44777 0H15.5344C15.5344 0 9.16124 5.84205 9.16124 10.6883C9.16124 15.5345 12.8789 17.4597 15.5344 17.4597C18.1899 17.4597 22.2395 15.4681 22.2395 10.6883C22.2395 5.90843 17.9243 4.38153 16.2646 4.31515Z" fill="white"/>
<path d="M0 19.7167V30.6705H31.1354V19.3848C31.1354 19.3848 29.8741 23.6999 24.0984 23.6999C19.385 23.6999 18.5883 20.7789 15.6009 20.7789C12.6135 20.7789 11.8833 23.5008 5.97482 23.5008C1.65967 23.5008 0 19.7167 0 19.7167Z" fill="white"/>
</g>
<defs>
<clipPath id="clip0_1003_2099">
<rect width="174" height="30.8699" fill="white"/>
</clipPath>
</defs>
</svg>
