<svg width="223" height="300" viewBox="0 0 223 300" fill="none" xmlns="http://www.w3.org/2000/svg">
<path d="M169.61 41.9488C169.61 47.0335 164.526 52.1183 159.441 52.1183C154.356 52.1183 149.271 47.0335 149.271 41.9488C149.271 36.864 154.356 31.7793 159.441 31.7793C165.797 31.7793 169.61 35.5929 169.61 41.9488Z" fill="white"/>
<path d="M175.966 252.967C175.966 247.883 170.882 242.798 165.797 242.798C160.712 242.798 155.627 247.883 155.627 252.967C155.627 258.052 160.712 263.137 165.797 263.137C170.882 263.137 175.966 258.052 175.966 252.967Z" fill="white"/>
<path d="M179.779 150C179.779 144.915 174.694 139.83 169.609 139.83C164.525 139.83 159.44 144.915 159.44 150C159.44 155.084 164.525 160.169 169.609 160.169C174.694 160.169 179.779 155.084 179.779 150Z" fill="white"/>
<path d="M193.763 61.0146L177.237 73.7265C192.492 95.3367 201.39 120.76 201.39 149.998C201.39 179.235 191.221 205.93 175.966 227.54L192.492 240.252C211.56 214.828 223 184.32 223 149.998C221.729 116.947 211.559 86.4384 193.763 61.0146Z" fill="white"/>
<path d="M72.9999 278.39C72.9999 278.39 71.7287 278.39 72.9999 278.39V256.78C122.576 256.78 164.525 222.458 175.966 177.966H154.356C142.915 212.288 111.135 236.441 72.9999 236.441C25.966 236.441 -13.4407 198.305 -13.4407 150C-13.4407 101.695 24.6948 63.5593 72.9999 63.5593C111.135 63.5593 142.915 87.7119 154.356 122.034H175.966C163.254 76.2712 122.576 43.2203 72.9999 43.2203V21.6102C92.0676 21.6102 109.864 25.4237 125.118 33.0508L134.017 12.7119C114.949 3.81356 94.61 0 72.9999 0C-9.62717 0 -77 67.3729 -77 150C-77 232.627 -9.62717 300 72.9999 300C100.966 300 127.661 292.373 150.542 278.39L139.102 259.322C120.034 270.763 97.1524 278.39 72.9999 278.39Z" fill="white"/>
</svg>
