<svg width="236" height="94" viewBox="0 0 236 94" fill="none" xmlns="http://www.w3.org/2000/svg">
<g opacity="0.05">
<path d="M193.466 33.4191C193.466 37.4699 189.415 41.5208 185.364 41.5208C181.314 41.5208 177.263 37.4699 177.263 33.4191C177.263 29.3682 181.314 25.3174 185.364 25.3174C190.428 25.3174 193.466 28.3555 193.466 33.4191Z" fill="#3F3B3B"/>
<path d="M212.708 48.6084L199.542 58.7355C211.695 75.9516 218.784 96.2058 218.784 119.498C218.784 142.791 210.682 164.058 198.53 181.274L211.695 191.401C226.886 171.147 236 146.841 236 119.498C234.987 93.1677 226.886 68.8626 212.708 48.6084Z" fill="#3F3B3B"/>
<path d="M116.5 221.784C116.5 221.784 115.487 221.784 116.5 221.784V204.568C155.996 204.568 189.415 177.225 198.529 141.78H181.313C172.199 169.123 146.881 188.364 116.5 188.364C79.0296 188.364 47.6355 157.983 47.6355 119.5C47.6355 81.0169 78.0169 50.6356 116.5 50.6356C146.881 50.6356 172.199 69.8771 181.313 97.2203H198.529C188.402 60.7627 155.996 34.4322 116.5 34.4322V17.2161C131.691 17.2161 145.868 20.2542 158.021 26.3305L165.11 10.1271C149.919 3.03814 133.716 0 116.5 0C50.6737 0 -3 53.6737 -3 119.5C-3 185.326 50.6737 239 116.5 239C138.78 239 160.046 232.924 178.275 221.784L169.161 206.593C153.97 215.708 135.741 221.784 116.5 221.784Z" fill="#3F3B3B"/>
</g>
</svg>
