<svg width="203" height="300" viewBox="0 0 203 300" fill="none" xmlns="http://www.w3.org/2000/svg">
<g opacity="0.6">
<path d="M149.61 41.9488C149.61 47.0335 144.526 52.1183 139.441 52.1183C134.356 52.1183 129.271 47.0335 129.271 41.9488C129.271 36.864 134.356 31.7793 139.441 31.7793C145.797 31.7793 149.61 35.5929 149.61 41.9488Z" fill="#F1F1F1"/>
<path d="M155.966 252.967C155.966 247.883 150.882 242.798 145.797 242.798C140.712 242.798 135.627 247.883 135.627 252.967C135.627 258.052 140.712 263.137 145.797 263.137C150.882 263.137 155.966 258.052 155.966 252.967Z" fill="#F1F1F1"/>
<path d="M159.779 150C159.779 144.915 154.694 139.83 149.609 139.83C144.525 139.83 139.44 144.915 139.44 150C139.44 155.084 144.525 160.169 149.609 160.169C154.694 160.169 159.779 155.084 159.779 150Z" fill="#F1F1F1"/>
<path d="M173.763 61.0146L157.237 73.7265C172.492 95.3367 181.39 120.76 181.39 149.998C181.39 179.235 171.221 205.93 155.966 227.54L172.492 240.252C191.56 214.828 203 184.32 203 149.998C201.729 116.947 191.559 86.4384 173.763 61.0146Z" fill="#F1F1F1"/>
<path d="M52.9999 278.39C52.9999 278.39 51.7287 278.39 52.9999 278.39V256.78C102.576 256.78 144.525 222.458 155.966 177.966H134.356C122.915 212.288 91.1354 236.441 52.9999 236.441C5.96601 236.441 -33.4407 198.305 -33.4407 150C-33.4407 101.695 4.69482 63.5593 52.9999 63.5593C91.1354 63.5593 122.915 87.7119 134.356 122.034H155.966C143.254 76.2712 102.576 43.2203 52.9999 43.2203V21.6102C72.0676 21.6102 89.8642 25.4237 105.118 33.0508L114.017 12.7119C94.949 3.81356 74.61 0 52.9999 0C-29.6272 0 -97 67.3729 -97 150C-97 232.627 -29.6272 300 52.9999 300C80.9659 300 107.661 292.373 130.542 278.39L119.102 259.322C100.034 270.763 77.1524 278.39 52.9999 278.39Z" fill="#F1F1F1"/>
</g>
</svg>
