<svg width="20" height="22" viewBox="0 0 20 22" fill="none" xmlns="http://www.w3.org/2000/svg">
<path d="M6 4.75C5.59 4.75 5.25 4.41 5.25 4V1C5.25 0.59 5.59 0.25 6 0.25C6.41 0.25 6.75 0.59 6.75 1V4C6.75 4.41 6.41 4.75 6 4.75Z" fill="white"/>
<path d="M14 4.75C13.59 4.75 13.25 4.41 13.25 4V1C13.25 0.59 13.59 0.25 14 0.25C14.41 0.25 14.75 0.59 14.75 1V4C14.75 4.41 14.41 4.75 14 4.75Z" fill="white"/>
<path d="M18.5 8.83984H1.5C1.09 8.83984 0.75 8.49984 0.75 8.08984C0.75 7.67984 1.09 7.33984 1.5 7.33984H18.5C18.91 7.33984 19.25 7.67984 19.25 8.08984C19.25 8.49984 18.91 8.83984 18.5 8.83984Z" fill="white"/>
<path d="M14 21.75H6C2.35 21.75 0.25 19.65 0.25 16V7.5C0.25 3.85 2.35 1.75 6 1.75H14C17.65 1.75 19.75 3.85 19.75 7.5V16C19.75 19.65 17.65 21.75 14 21.75ZM6 3.25C3.14 3.25 1.75 4.64 1.75 7.5V16C1.75 18.86 3.14 20.25 6 20.25H14C16.86 20.25 18.25 18.86 18.25 16V7.5C18.25 4.64 16.86 3.25 14 3.25H6Z" fill="white"/>
<path d="M6.5 13.5C6.37 13.5 6.24 13.47 6.12 13.42C6 13.37 5.89001 13.3 5.79001 13.21C5.70001 13.11 5.62999 13 5.57999 12.88C5.52999 12.76 5.5 12.63 5.5 12.5C5.5 12.24 5.61001 11.98 5.79001 11.79C5.89001 11.7 6 11.63 6.12 11.58C6.3 11.5 6.50001 11.48 6.70001 11.52C6.76001 11.53 6.82 11.55 6.88 11.58C6.94 11.6 7 11.63 7.06 11.67C7.11 11.71 7.15999 11.75 7.20999 11.79C7.24999 11.84 7.29999 11.89 7.32999 11.94C7.36999 12 7.40001 12.06 7.42001 12.12C7.45001 12.18 7.47001 12.24 7.48001 12.3C7.49001 12.37 7.5 12.43 7.5 12.5C7.5 12.76 7.38999 13.02 7.20999 13.21C7.01999 13.39 6.76 13.5 6.5 13.5Z" fill="white"/>
<path d="M10 13.4999C9.74 13.4999 9.48001 13.3899 9.29001 13.2099C9.25001 13.1599 9.21001 13.1099 9.17001 13.0599C9.13001 12.9999 9.09999 12.9399 9.07999 12.8799C9.04999 12.8199 9.02999 12.7599 9.01999 12.6999C9.00999 12.6299 9 12.5699 9 12.4999C9 12.3699 9.02999 12.2399 9.07999 12.1199C9.12999 11.9999 9.20001 11.8899 9.29001 11.7899C9.57001 11.5099 10.02 11.4199 10.38 11.5799C10.51 11.6299 10.61 11.6999 10.71 11.7899C10.89 11.9799 11 12.2399 11 12.4999C11 12.5699 10.99 12.6299 10.98 12.6999C10.97 12.7599 10.95 12.8199 10.92 12.8799C10.9 12.9399 10.87 12.9999 10.83 13.0599C10.79 13.1099 10.75 13.1599 10.71 13.2099C10.61 13.2999 10.51 13.3699 10.38 13.4199C10.26 13.4699 10.13 13.4999 10 13.4999Z" fill="white"/>
<path d="M6.5 16.9999C6.37 16.9999 6.24 16.9699 6.12 16.9199C6 16.8699 5.89001 16.7999 5.79001 16.7099C5.70001 16.6099 5.62999 16.5099 5.57999 16.3799C5.52999 16.2599 5.5 16.1299 5.5 15.9999C5.5 15.7399 5.61001 15.4799 5.79001 15.2899C5.89001 15.1999 6 15.1299 6.12 15.0799C6.49 14.9199 6.92999 15.0099 7.20999 15.2899C7.24999 15.3399 7.29999 15.3899 7.32999 15.4399C7.36999 15.4999 7.40001 15.5599 7.42001 15.6199C7.45001 15.6799 7.47001 15.7399 7.48001 15.8099C7.49001 15.8699 7.5 15.9399 7.5 15.9999C7.5 16.2599 7.38999 16.5199 7.20999 16.7099C7.01999 16.8899 6.76 16.9999 6.5 16.9999Z" fill="white"/>
</svg>
