<svg width="19" height="19" viewBox="0 0 19 19" fill="none" xmlns="http://www.w3.org/2000/svg">
<g clip-path="url(#clip0_1014_2548)">
<path fill-rule="evenodd" clip-rule="evenodd" d="M5.90963 0.844242C6.83825 0.801492 7.13434 0.791992 9.49984 0.791992C11.8653 0.791992 12.1614 0.802284 13.0893 0.844242C14.0171 0.886201 14.6504 1.03424 15.2046 1.24878C15.7849 1.46808 16.3113 1.81087 16.7468 2.2542C17.1901 2.68883 17.5321 3.21449 17.7506 3.79558C17.9659 4.34974 18.1132 4.98308 18.1559 5.90933C18.1987 6.83953 18.2082 7.13562 18.2082 9.50033C18.2082 11.8658 18.1979 12.1619 18.1559 13.0905C18.114 14.0168 17.9659 14.6501 17.7506 15.2043C17.5321 15.7854 17.1895 16.312 16.7468 16.7472C16.3113 17.1906 15.7849 17.5326 15.2046 17.7511C14.6504 17.9664 14.0171 18.1137 13.0908 18.1564C12.1614 18.1992 11.8653 18.2087 9.49984 18.2087C7.13434 18.2087 6.83825 18.1984 5.90963 18.1564C4.98338 18.1145 4.35005 17.9664 3.79588 17.7511C3.21473 17.5325 2.68819 17.19 2.25292 16.7472C1.80989 16.3124 1.46704 15.7861 1.2483 15.2051C1.03375 14.6509 0.886504 14.0176 0.843754 13.0913C0.801004 12.1611 0.791504 11.865 0.791504 9.50033C0.791504 7.13483 0.801796 6.83874 0.843754 5.91091C0.885712 4.98308 1.03375 4.34974 1.2483 3.79558C1.46737 3.21456 1.81047 2.68828 2.25371 2.25341C2.68837 1.81047 3.21438 1.46763 3.79509 1.24878C4.34925 1.03424 4.98259 0.886992 5.90884 0.844242H5.90963ZM13.0188 2.41174C12.1005 2.36978 11.825 2.36108 9.49984 2.36108C7.17471 2.36108 6.89921 2.36978 5.98088 2.41174C5.13142 2.45053 4.67067 2.59224 4.3635 2.71178C3.95738 2.87012 3.66684 3.05774 3.36205 3.36253C3.07312 3.64362 2.85077 3.9858 2.7113 4.36399C2.59175 4.67116 2.45005 5.13191 2.41125 5.98137C2.3693 6.8997 2.36059 7.1752 2.36059 9.50033C2.36059 11.8254 2.3693 12.1009 2.41125 13.0193C2.45005 13.8687 2.59175 14.3295 2.7113 14.6367C2.85063 15.0143 3.07309 15.3571 3.36205 15.6381C3.64309 15.9271 3.98588 16.1495 4.3635 16.2889C4.67067 16.4084 5.13142 16.5501 5.98088 16.5889C6.89921 16.6309 7.17392 16.6396 9.49984 16.6396C11.8258 16.6396 12.1005 16.6309 13.0188 16.5889C13.8683 16.5501 14.329 16.4084 14.6362 16.2889C15.0423 16.1305 15.3328 15.9429 15.6376 15.6381C15.9266 15.3571 16.149 15.0143 16.2884 14.6367C16.4079 14.3295 16.5496 13.8687 16.5884 13.0193C16.6304 12.1009 16.6391 11.8254 16.6391 9.50033C16.6391 7.1752 16.6304 6.8997 16.5884 5.98137C16.5496 5.13191 16.4079 4.67116 16.2884 4.36399C16.13 3.95787 15.9424 3.66733 15.6376 3.36253C15.3565 3.07363 15.0144 2.85128 14.6362 2.71178C14.329 2.59224 13.8683 2.45053 13.0188 2.41174ZM8.38755 12.1849C9.00873 12.4434 9.70043 12.4783 10.3445 12.2836C10.9885 12.0889 11.545 11.6766 11.9189 11.1171C12.2927 10.5577 12.4607 9.88576 12.3942 9.2162C12.3277 8.54664 12.0308 7.92093 11.5542 7.44595C11.2504 7.14233 10.883 6.90984 10.4786 6.76523C10.0742 6.62062 9.64268 6.56749 9.21523 6.60965C8.78778 6.65181 8.375 6.78822 8.0066 7.00905C7.6382 7.22989 7.32334 7.52966 7.0847 7.88679C6.84606 8.24392 6.68957 8.64951 6.6265 9.07438C6.56342 9.49924 6.59533 9.93281 6.71993 10.3439C6.84453 10.7549 7.05872 11.1332 7.34707 11.4516C7.63543 11.7699 7.99078 12.0203 8.38755 12.1849ZM6.33475 6.33524C6.7504 5.9196 7.24384 5.58989 7.78691 5.36494C8.32997 5.14 8.91203 5.02422 9.49984 5.02422C10.0876 5.02422 10.6697 5.14 11.2128 5.36494C11.7558 5.58989 12.2493 5.9196 12.6649 6.33524C13.0806 6.75089 13.4103 7.24433 13.6352 7.78739C13.8602 8.33046 13.9759 8.91251 13.9759 9.50033C13.9759 10.0881 13.8602 10.6702 13.6352 11.2133C13.4103 11.7563 13.0806 12.2498 12.6649 12.6654C11.8255 13.5048 10.687 13.9764 9.49984 13.9764C8.3127 13.9764 7.17419 13.5048 6.33475 12.6654C5.49532 11.826 5.02373 10.6875 5.02373 9.50033C5.02373 8.31319 5.49532 7.17467 6.33475 6.33524ZM14.9687 5.69083C15.0717 5.59366 15.1541 5.47682 15.2112 5.34722C15.2682 5.21762 15.2986 5.07789 15.3007 4.93631C15.3028 4.79473 15.2764 4.65418 15.2232 4.52297C15.1699 4.39176 15.0909 4.27256 14.9908 4.17244C14.8907 4.07232 14.7715 3.9933 14.6403 3.94007C14.5091 3.88684 14.3685 3.86047 14.2269 3.86254C14.0854 3.8646 13.9456 3.89505 13.816 3.95209C13.6864 4.00912 13.5696 4.09158 13.4724 4.19458C13.2835 4.39489 13.18 4.66096 13.184 4.93631C13.188 5.21166 13.2992 5.4746 13.4939 5.66933C13.6886 5.86405 13.9516 5.97521 14.2269 5.97923C14.5023 5.98324 14.7684 5.87979 14.9687 5.69083Z" fill="#3F3B3B"/>
</g>
<defs>
<clipPath id="clip0_1014_2548">
<rect width="19" height="19" fill="white"/>
</clipPath>
</defs>
</svg>
