<svg width="20" height="19" viewBox="0 0 20 19" fill="none" xmlns="http://www.w3.org/2000/svg">
<path fill-rule="evenodd" clip-rule="evenodd" d="M6.29439 0.843876C7.22302 0.801126 7.5191 0.791626 9.8846 0.791626C12.2501 0.791626 12.5462 0.801918 13.474 0.843876C14.4019 0.885834 15.0352 1.03388 15.5894 1.24842C16.1696 1.46771 16.6961 1.8105 17.1315 2.25383C17.5749 2.68846 17.9169 3.21413 18.1354 3.79521C18.3507 4.34938 18.4979 4.98271 18.5407 5.90896C18.5834 6.83917 18.5929 7.13525 18.5929 9.49996C18.5929 11.8655 18.5826 12.1615 18.5407 13.0902C18.4987 14.0164 18.3507 14.6497 18.1354 15.2039C17.9168 15.7851 17.5743 16.3116 17.1315 16.7469C16.6961 17.1902 16.1696 17.5322 15.5894 17.7507C15.0352 17.966 14.4019 18.1133 13.4756 18.156C12.5462 18.1988 12.2501 18.2083 9.8846 18.2083C7.5191 18.2083 7.22302 18.198 6.29439 18.156C5.36814 18.1141 4.73481 17.966 4.18064 17.7507C3.5995 17.5322 3.07296 17.1896 2.63769 16.7469C2.19465 16.312 1.85181 15.7857 1.63306 15.2047C1.41852 14.6505 1.27127 14.0172 1.22852 13.091C1.18577 12.1607 1.17627 11.8647 1.17627 9.49996C1.17627 7.13446 1.18656 6.83838 1.22852 5.91054C1.27048 4.98271 1.41852 4.34938 1.63306 3.79521C1.85213 3.21419 2.19524 2.68792 2.63848 2.25304C3.07313 1.81011 3.59914 1.46727 4.17985 1.24842C4.73402 1.03388 5.36735 0.886626 6.2936 0.843876H6.29439ZM13.4036 2.41138C12.4852 2.36942 12.2097 2.36071 9.8846 2.36071C7.55948 2.36071 7.28398 2.36942 6.36564 2.41138C5.51619 2.45017 5.05544 2.59188 4.74827 2.71142C4.34214 2.86975 4.0516 3.05738 3.74681 3.36217C3.45789 3.64325 3.23554 3.98543 3.09606 4.36363C2.97652 4.67079 2.83481 5.13154 2.79602 5.981C2.75406 6.89933 2.74535 7.17483 2.74535 9.49996C2.74535 11.8251 2.75406 12.1006 2.79602 13.0189C2.83481 13.8684 2.97652 14.3291 3.09606 14.6363C3.23539 15.0139 3.45785 15.3567 3.74681 15.6378C4.02785 15.9267 4.37064 16.1492 4.74827 16.2885C5.05544 16.408 5.51619 16.5498 6.36564 16.5885C7.28398 16.6305 7.55869 16.6392 9.8846 16.6392C12.2105 16.6392 12.4852 16.6305 13.4036 16.5885C14.253 16.5498 14.7138 16.408 15.0209 16.2885C15.4271 16.1302 15.7176 15.9425 16.0224 15.6378C16.3114 15.3567 16.5338 15.0139 16.6731 14.6363C16.7927 14.3291 16.9344 13.8684 16.9732 13.0189C17.0151 12.1006 17.0239 11.8251 17.0239 9.49996C17.0239 7.17483 17.0151 6.89933 16.9732 5.981C16.9344 5.13154 16.7927 4.67079 16.6731 4.36363C16.5148 3.9575 16.3272 3.66696 16.0224 3.36217C15.7413 3.07327 15.3991 2.85092 15.0209 2.71142C14.7138 2.59188 14.253 2.45017 13.4036 2.41138ZM8.77231 12.1845C9.3935 12.4431 10.0852 12.478 10.7293 12.2832C11.3733 12.0885 11.9298 11.6762 12.3036 11.1167C12.6775 10.5573 12.8455 9.8854 12.779 9.21583C12.7125 8.54627 12.4156 7.92056 11.939 7.44558C11.6352 7.14196 11.2678 6.90948 10.8634 6.76487C10.4589 6.62026 10.0274 6.56712 9.59999 6.60928C9.17255 6.65144 8.75977 6.78785 8.39136 7.00869C8.02296 7.22953 7.70811 7.5293 7.46947 7.88642C7.23083 8.24355 7.07434 8.64915 7.01126 9.07401C6.94819 9.49888 6.9801 9.93244 7.1047 10.3435C7.2293 10.7545 7.44348 11.1329 7.73184 11.4512C8.0202 11.7695 8.37555 12.02 8.77231 12.1845ZM6.71952 6.33488C7.13516 5.91923 7.62861 5.58952 8.17167 5.36458C8.71474 5.13963 9.29679 5.02386 9.8846 5.02386C10.4724 5.02386 11.0545 5.13963 11.5975 5.36458C12.1406 5.58952 12.634 5.91923 13.0497 6.33488C13.4653 6.75052 13.795 7.24396 14.02 7.78703C14.2449 8.33009 14.3607 8.91215 14.3607 9.49996C14.3607 10.0878 14.2449 10.6698 14.02 11.2129C13.795 11.756 13.4653 12.2494 13.0497 12.665C12.2103 13.5045 11.0717 13.9761 9.8846 13.9761C8.69747 13.9761 7.55895 13.5045 6.71952 12.665C5.88009 11.8256 5.4085 10.6871 5.4085 9.49996C5.4085 8.31282 5.88009 7.17431 6.71952 6.33488ZM15.3534 5.69046C15.4564 5.5933 15.5389 5.47646 15.5959 5.34686C15.653 5.21725 15.6834 5.07753 15.6855 4.93595C15.6875 4.79436 15.6612 4.65381 15.6079 4.5226C15.5547 4.39139 15.4757 4.2722 15.3756 4.17207C15.2754 4.07195 15.1563 3.99293 15.025 3.9397C14.8938 3.88647 14.7533 3.86011 14.6117 3.86217C14.4701 3.86423 14.3304 3.89469 14.2008 3.95172C14.0712 4.00875 13.9543 4.09121 13.8572 4.19421C13.6682 4.39452 13.5648 4.6606 13.5688 4.93595C13.5728 5.21129 13.684 5.47424 13.8787 5.66896C14.0734 5.86368 14.3364 5.97485 14.6117 5.97886C14.887 5.98288 15.1531 5.87942 15.3534 5.69046Z" fill="white"/>
</svg>
