<svg width="71" height="80" viewBox="0 0 71 80" fill="none" xmlns="http://www.w3.org/2000/svg">
<g clip-path="url(#clip0_1080_2359)">
<path d="M36.7 79.1H33.6C28.5 79.1 24.4 75 24.4 69.9V61.3C24.4 60.9 24.7 60.6 25 60.6H45.3C45.7 60.6 45.9 60.9 45.9 61.3V69.9C45.9 75 41.8 79.1 36.7 79.1ZM25.6 62V69.9C25.6 74.3 29.2 77.8 33.5 77.8H36.6C41 77.8 44.5 74.2 44.5 69.9V62H25.6Z" fill="#344689"/>
<path d="M45.2 62H25C24.7 62 24.4 61.8 24.4 61.5C23.7 57.9 21.6 54.2 18.3 51.1C12.6 45.6 9.80001 38 10.6 30C11.8 18.3 21.2 8.9 32.9 7.6C33.7 7.5 34.4 7.5 35.1 7.5C35.5 7.5 35.9 7.5 36.2 7.6C36.5 7.6 36.9 7.7 37.2 7.7C49 8.9 58.4 18.3 59.7 30C60.6 37.9 57.8 45.6 52 51.1C48.7 54.3 46.5 58 45.9 61.5C45.8 61.8 45.6 62 45.2 62ZM25.5 60.7H44.7C45.5 57 47.8 53.3 51.1 50.1C56.5 44.9 59.2 37.6 58.4 30.1C57.2 19 48.3 10.1 37.2 8.9C36.9 8.9 36.5 8.9 36.1 8.8C35.8 8.8 35.4 8.7 35.1 8.7C34.3 8.7 33.8 8.7 33.1 8.8C22 10 13.1 19 11.8 30C11 37.5 13.6 44.8 19.1 50C22.4 53.3 24.7 57 25.5 60.7Z" fill="#344689"/>
<path d="M47.7 66.3H22.5C22.1 66.3 21.9 66 21.9 65.6C21.9 65.2 22.2 64.9 22.5 64.9H47.6C48 64.9 48.2 65.2 48.2 65.6C48.3 66 48 66.3 47.7 66.3Z" fill="#344689"/>
<path d="M47.7 70.7H22.5C22.1 70.7 21.9 70.4 21.9 70C21.9 69.6 22.2 69.3 22.5 69.3H47.6C48 69.3 48.2 69.6 48.2 70C48.3 70.4 48 70.7 47.7 70.7Z" fill="#344689"/>
<path d="M47.7 75H22.5C22.1 75 21.9 74.7 21.9 74.3C21.9 73.9 22.2 73.6 22.5 73.6H47.6C48 73.6 48.2 73.9 48.2 74.3C48.3 74.7 48 75 47.7 75Z" fill="#344689"/>
<path d="M35 62C34.9 62 34.8 62 34.7 61.9C34.6 61.8 34.4 61.7 34.4 61.6L29.3 51.6C29.1 51.3 29.2 50.9 29.5 50.7C29.8 50.5 30.2 50.6 30.4 50.9L34.8 59.8L38.4 51C38.5 50.7 38.9 50.5 39.2 50.6C39.5 50.7 39.7 51.1 39.6 51.4L35.7 61.2L35.5 61.6C35.5 61.9 35.3 62 35 62Z" fill="#344689"/>
<path d="M34.1 46.7C33.5 46.7 32.8 46.5 32.1 45.9C30.9 45 29.7 45.4 28.5 46C28 46.2 27.7 46.4 27.4 46.4C27 46.4 26.8 46.1 26.8 45.7C26.8 45.3 27.1 45.1 27.4 45.1C27.5 45.1 27.8 44.9 28 44.9C29.1 44.4 31.1 43.5 33 44.9C34.1 45.8 34.8 45.4 35.8 44.9C36.3 44.6 36.8001 44.3 37.4001 44.3C38.8001 44.2 41.4001 45.3 41.7001 45.4C42.0001 45.5 42.2 45.9 42 46.3C41.9 46.6 41.5 46.8 41.1 46.6C40.4 46.3 38.3001 45.5 37.4001 45.6C37.1001 45.6 36.7 45.8 36.3 46C35.7 46.3 35 46.7 34.1 46.7Z" fill="#344689"/>
<path d="M35.1 5.5C34.7 5.5 34.5 5.2 34.5 4.8V0.7C34.5 0.3 34.8 0 35.1 0C35.5 0 35.7 0.3 35.7 0.7V4.9C35.8 5.2 35.5 5.5 35.1 5.5Z" fill="#344689"/>
<path d="M50.2 9.6C50.1 9.6 50 9.6 49.9 9.5C49.6 9.3 49.5 8.9 49.7 8.6L51.8 4.9C52 4.6 52.4 4.5 52.7 4.7C53 4.9 53.1 5.3 52.9 5.6L50.8 9.3C50.7 9.5 50.5 9.6 50.2 9.6Z" fill="#344689"/>
<path d="M61.3 20.6C61.1 20.6 60.9 20.5 60.7 20.3C60.5 20 60.6 19.6 60.9 19.4L64.6 17.3C64.9 17.1 65.3 17.2 65.5 17.5C65.7 17.8 65.6 18.2 65.3 18.4L61.6 20.5C61.5 20.6 61.4 20.6 61.3 20.6Z" fill="#344689"/>
<path d="M69.6 35.8H65.4C65 35.8 64.8 35.5 64.8 35.1C64.8 34.7 65.1 34.4 65.4 34.4H69.6C70 34.4 70.2 34.7 70.2 35.1C70.2 35.5 69.9 35.8 69.6 35.8Z" fill="#344689"/>
<path d="M64.9 53C64.8 53 64.7 53 64.6 52.9L61 50.8C60.7 50.6 60.6 50.2 60.8 49.9C61 49.6 61.4 49.5 61.7 49.7L65.4 51.8C65.7 52 65.8 52.4 65.6 52.7C65.4 52.9 65.2 53 64.9 53Z" fill="#344689"/>
<path d="M5.3 53C5.1 53 4.9 52.9 4.7 52.7C4.5 52.4 4.6 52 4.9 51.8L8.6 49.7C8.9 49.5 9.3 49.6 9.5 49.9C9.7 50.2 9.6 50.6 9.3 50.8L5.6 52.9C5.5 53 5.4 53 5.3 53Z" fill="#344689"/>
<path d="M4.9 35.8H0.6C0.2 35.8 0 35.5 0 35.1C0 34.7 0.3 34.4 0.6 34.4H4.8C5.2 34.4 5.4 34.7 5.4 35.1C5.5 35.5 5.2 35.8 4.9 35.8Z" fill="#344689"/>
<path d="M8.9 20.6C8.8 20.6 8.7 20.6 8.6 20.5L4.9 18.4C4.6 18.2 4.5 17.8 4.7 17.5C4.9 17.2 5.3 17.1 5.6 17.3L9.3 19.4C9.6 19.6 9.7 20 9.5 20.3C9.4 20.5 9.1 20.6 8.9 20.6Z" fill="#344689"/>
<path d="M20 9.6C19.8 9.6 19.6 9.5 19.4 9.3L17.3 5.6C17.1 5.3 17.2 4.9 17.5 4.7C17.8 4.5 18.2 4.6 18.4 4.9L20.5 8.6C20.7 8.9 20.6 9.3 20.3 9.5C20.2 9.5 20.1 9.6 20 9.6Z" fill="#344689"/>
</g>
<defs>
<clipPath id="clip0_1080_2359">
<rect width="70.2" height="79.1" fill="white"/>
</clipPath>
</defs>
</svg>
