<svg width="80" height="59" viewBox="0 0 80 59" fill="none" xmlns="http://www.w3.org/2000/svg">
<g clip-path="url(#clip0_1080_2366)">
<path d="M36.2073 22.5051C34.6903 22.4037 33.2743 22.3024 31.9595 22.3024V18.5515H36.2073V22.5051Z" stroke="#344689" stroke-width="1.3" stroke-miterlimit="10" stroke-linecap="round" stroke-linejoin="round"/>
<path d="M43.0847 23.5189C41.6688 23.2148 40.2528 23.012 38.8369 22.8093V22.7079V13.1787H43.0847V23.3162V23.5189Z" stroke="#344689" stroke-width="1.3" stroke-miterlimit="10" stroke-linecap="round" stroke-linejoin="round"/>
<path d="M50.0632 8.10999V25.1409L49.8609 25.5464C48.6473 25.0395 47.2314 24.5327 45.8154 24.1272V8.10999H50.0632Z" stroke="#344689" stroke-width="1.3" stroke-miterlimit="10" stroke-linecap="round" stroke-linejoin="round"/>
<path d="M59.6713 29.9055V0.608276H63.9191V27.6753L64.0202 27.878C62.5031 28.4863 60.9861 29.1959 59.6713 29.9055Z" stroke="#344689" stroke-width="1.3" stroke-miterlimit="10" stroke-linecap="round" stroke-linejoin="round"/>
<path d="M56.9406 4.46045V31.2233L57.0417 31.4261C56.3338 31.8316 55.7269 32.3385 55.2213 32.744C55.4235 32.2371 55.5247 31.5275 55.4235 30.7165C55.2213 29.2972 54.1087 27.9793 52.5917 26.9656L52.794 26.6615V4.46045H56.9406Z" stroke="#344689" stroke-width="1.3" stroke-miterlimit="10" stroke-linecap="round" stroke-linejoin="round"/>
<path d="M12.7433 44.5035C11.732 44.6048 10.9229 45.5172 11.024 46.6323C11.1251 47.6461 12.0354 48.4571 13.1479 48.3557C14.1593 48.2543 14.9684 47.342 14.8672 46.2268C14.7661 45.2131 13.7547 44.4021 12.7433 44.5035ZM3.03412 58.3918L0.606812 33.4536L11.5297 30.1083L21.3401 45.9227L21.8458 49.9777L3.03412 58.3918Z" stroke="#344689" stroke-width="1.3" stroke-miterlimit="10" stroke-linecap="round" stroke-linejoin="round"/>
<path d="M49.962 47.0379C38.23 47.9503 35.8027 40.2458 21.34 45.8214L11.5297 30.007C15.0695 27.9795 21.1378 24.5327 25.689 23.1135C26.2958 22.9107 26.9026 22.708 27.5094 22.6066C28.5208 22.4039 30.0379 22.3025 31.8584 22.3025C33.1732 22.3025 34.5891 22.4039 36.1062 22.5052C37.0164 22.6066 37.9266 22.708 38.8369 22.8094C40.2528 23.0121 41.6687 23.2149 43.0847 23.519C43.9949 23.7217 44.9051 23.9245 45.8154 24.1272C47.2313 24.5327 48.6472 24.9382 49.8609 25.5465C50.8723 25.952 51.7825 26.4588 52.4905 26.9657C54.1087 27.9795 55.1201 29.2973 55.3223 30.7166C55.4235 31.5276 55.4235 32.2372 55.1201 32.7441C55.6257 32.3386 56.3337 31.8317 56.9405 31.4262C57.7496 30.9193 58.5587 30.4125 59.5701 29.9056C60.8849 29.196 62.402 28.4863 63.919 27.8781C67.0543 26.5602 70.2907 25.5465 72.8192 25.141H72.9203C75.4488 24.8369 79.0897 25.0396 79.292 28.2836C79.6965 33.4537 56.8394 46.531 49.962 47.0379Z" stroke="#344689" stroke-width="1.3" stroke-miterlimit="10" stroke-linecap="round" stroke-linejoin="round"/>
<path d="M11.6309 30.007C15.1707 27.9795 21.2389 24.5327 25.7902 23.1135C26.397 22.9107 27.0038 22.708 27.6106 22.6066C28.622 22.4039 30.1391 22.3025 31.9596 22.3025C33.2743 22.3025 34.6903 22.4039 36.2073 22.5052C37.1176 22.6066 38.0278 22.708 38.9381 22.8094C40.354 23.0121 41.7699 23.2149 43.1859 23.519C44.0961 23.7217 45.0063 23.9245 45.9166 24.1272C47.3325 24.5327 48.7484 24.9382 49.9621 25.5465C50.9735 25.952 51.8837 26.4588 52.5917 26.9657C54.2099 27.9795 55.2212 29.2973 55.4235 30.7166C55.5247 31.5276 55.5247 32.2372 55.2212 32.7441C53.2996 37.3059 40.1517 33.4537 37.421 32.7441" stroke="#344689" stroke-width="1.3" stroke-miterlimit="2.6131" stroke-linecap="round" stroke-linejoin="round"/>
<path d="M21.3401 45.8213C35.8028 40.1444 38.2301 47.8488 49.9621 47.0378C56.8395 46.531 79.6966 33.4536 79.2921 28.2835C79.0898 25.0396 75.3477 24.8368 72.9204 25.1409H72.8192C70.3919 25.445 67.0544 26.4588 63.9191 27.878C62.402 28.4863 60.9861 29.1959 59.5702 29.9055C58.6599 30.4124 57.7497 30.9193 56.9406 31.4261C56.2326 31.8316 55.6258 32.3385 55.1201 32.744" stroke="#344689" stroke-width="1.3" stroke-miterlimit="2.6131" stroke-linecap="round" stroke-linejoin="round"/>
<path d="M21.3401 45.8214L21.8458 49.8764L3.03412 58.3918L0.606812 33.4537L11.6308 30.007L21.3401 45.8214Z" stroke="#344689" stroke-width="1.3" stroke-miterlimit="2.6131" stroke-linecap="round" stroke-linejoin="round"/>
<path d="M12.7433 44.5035C13.7547 44.4021 14.7661 45.1117 14.8672 46.2269C14.9684 47.2406 14.2604 48.2544 13.1479 48.3557C12.1365 48.4571 11.1251 47.7475 11.024 46.6324C10.9229 45.6186 11.732 44.7063 12.7433 44.5035Z" stroke="#344689" stroke-width="1.3" stroke-miterlimit="2.6131" stroke-linecap="round" stroke-linejoin="round"/>
</g>
<defs>
<clipPath id="clip0_1080_2366">
<rect width="80" height="59" fill="white"/>
</clipPath>
</defs>
</svg>
