<svg width="57" height="68" viewBox="0 0 57 68" fill="none" xmlns="http://www.w3.org/2000/svg">
<g clip-path="url(#clip0_1080_2362)">
<path d="M0.0208206 35.8823C19.0116 35.8823 37.9745 35.8823 56.9722 35.8823C56.9791 35.7647 56.9861 35.654 56.9861 35.5432C56.9861 34.1453 56.9791 32.7543 56.993 31.3564C56.993 31.1211 56.9166 31.0104 56.7152 30.9066C55.9372 30.5052 55.1662 30.0692 54.3813 29.6747C54.1034 29.5294 53.9854 29.3702 53.9923 29.045C54.0131 27.4394 54.034 25.8408 53.9923 24.2353C53.8534 18.3045 51.5959 13.2595 47.4629 9.03804C44.3372 5.84773 40.5585 3.72317 36.2727 2.49825C36.0157 2.42213 35.8768 2.31832 35.7865 2.04842C35.3975 0.844272 34.2931 0.0345833 32.9247 0.0207425C30.3685 -0.00693916 27.8054 -0.0138596 25.2492 0.0207425C23.8877 0.0415038 22.8945 0.712784 22.4013 2.0069C22.311 2.2422 22.1443 2.26988 21.9567 2.31832C19.0741 3.06573 16.379 4.2422 13.92 5.91694C8.75906 9.43251 5.3624 14.1661 4.04263 20.3045C3.75089 21.6609 3.61892 23.038 3.61198 24.4291C3.60503 25.8685 3.60503 27.3149 3.61892 28.7543C3.61892 29.0311 3.52862 29.1626 3.27856 29.2664C2.26442 29.6955 1.26418 30.1384 0.263935 30.5951C0.145851 30.6505 0.00692749 30.8166 0.00692749 30.9273C-0.00696564 32.519 -0.00696182 34.1107 -1.52588e-05 35.7024C-1.52588e-05 35.7509 0.0138741 35.7993 0.0208206 35.8823ZM24.499 18.2145C24.499 18.0484 24.499 17.9031 24.499 17.7578C24.499 12.9135 24.499 8.06919 24.499 3.2249C24.499 2.53285 24.763 2.25604 25.4576 2.25604C27.8887 2.25604 30.3199 2.25604 32.751 2.25604C33.4248 2.25604 33.6888 2.53285 33.6888 3.20413C33.6888 8.06919 33.6888 12.9342 33.6888 17.8062C33.6888 17.9377 33.6888 18.0761 33.6888 18.2145C34.4598 18.2145 35.1891 18.2145 35.9532 18.2145C35.9532 13.7301 35.9532 9.2595 35.9532 4.78891C36.0296 4.78891 36.0713 4.78199 36.0991 4.78891C36.1755 4.80967 36.2588 4.83043 36.3352 4.85811C40.3362 6.13147 43.7954 8.25604 46.5947 11.391C49.8385 15.0311 51.6376 19.2733 51.7418 24.173C51.7834 26.2837 51.7557 28.3944 51.7487 30.5052C51.7487 30.7335 51.8182 30.8581 52.0196 30.9619C52.8393 31.3841 53.6589 31.827 54.4646 32.2699C54.5758 32.3322 54.7147 32.4429 54.7286 32.5467C54.7633 32.8996 54.7425 33.2595 54.7425 33.6332C37.2382 33.6332 19.7687 33.6332 2.26442 33.6332C2.26442 33.2387 2.27832 32.872 2.25748 32.5052C2.24359 32.256 2.33389 32.1384 2.55616 32.0415C3.5564 31.6124 4.54276 31.1626 5.543 30.7405C5.79306 30.6367 5.88336 30.5121 5.88336 30.2284C5.86946 28.3391 5.87642 26.4429 5.87642 24.5536C5.88336 21.0519 6.75858 17.7716 8.55068 14.7612C11.6487 9.54323 16.2609 6.3114 22.047 4.63666C22.0956 4.62282 22.1512 4.62282 22.2624 4.6159C22.2624 9.16261 22.2624 13.6886 22.2624 18.2145C23.0264 18.2145 23.7419 18.2145 24.499 18.2145Z" fill="#344689"/>
<path d="M54.5827 38.7474C54.5827 39.4464 54.5549 40.0969 54.5897 40.7336C54.6105 41.1211 54.4646 41.3011 54.1312 41.4672C52.7837 42.1523 51.45 42.8789 50.1094 43.5848C49.908 43.6886 49.8038 43.8132 49.7552 44.0485C49.5537 44.8858 49.3245 45.7232 49.0814 46.5537C49.0189 46.7682 49.0467 46.9135 49.1647 47.0935C50.033 48.3599 50.8804 49.6402 51.7487 50.9066C51.9154 51.1419 51.9085 51.3149 51.7626 51.5502C51.318 52.2769 50.8943 53.0173 50.4776 53.7647C50.3595 53.9793 50.2206 54.0416 49.9844 54.0346C48.4215 53.9724 46.8586 53.9308 45.3027 53.8685C45.0387 53.8547 44.8581 53.9308 44.6706 54.1246C44.101 54.7267 43.5106 55.3149 42.9063 55.8893C42.7396 56.0485 42.6701 56.2007 42.6909 56.4291C42.8021 57.9447 42.8993 59.4672 43.0174 60.9827C43.0382 61.2803 42.9688 61.4395 42.7048 61.5848C41.9546 61.9931 41.2114 62.4222 40.4821 62.8651C40.2667 62.9897 40.1209 62.9758 39.9194 62.8443C38.5927 62.007 37.2521 61.1834 35.9185 60.3461C35.7309 60.2284 35.5642 60.1938 35.3419 60.263C34.5084 60.5052 33.6679 60.7059 32.8344 60.955C32.6746 61.0035 32.4871 61.1419 32.4107 61.2872C31.716 62.6644 31.0353 64.0554 30.3615 65.4464C30.2574 65.6609 30.1393 65.7509 29.8892 65.7509C29.007 65.7371 28.1318 65.7371 27.2497 65.7509C27.0066 65.7578 26.8815 65.6679 26.7704 65.4602C26.041 64.0692 25.2909 62.6921 24.5615 61.3011C24.4573 61.1004 24.3184 61.0035 24.0961 60.9481C23.2765 60.7474 22.4568 60.5398 21.6511 60.2976C21.3871 60.2215 21.2065 60.2561 20.9843 60.4014C19.7201 61.2595 18.4489 62.1038 17.1847 62.962C16.9902 63.0935 16.8374 63.1142 16.6221 62.9897C15.8719 62.5398 15.1078 62.0969 14.3368 61.6748C14.1215 61.5571 14.059 61.4187 14.0729 61.1834C14.1423 59.6263 14.1909 58.0692 14.2535 56.5191C14.2673 56.2699 14.1979 56.0969 14.0103 55.917C13.3991 55.3426 12.8017 54.7405 12.2182 54.1315C12.0446 53.9516 11.8848 53.8962 11.6487 53.917C10.1136 54.0346 8.57846 54.1315 7.04336 54.2492C6.78635 54.2699 6.64743 54.1869 6.52935 53.9654C6.11258 53.218 5.68887 52.4775 5.24432 51.7509C5.09845 51.5156 5.11928 51.3564 5.26515 51.1281C6.10564 49.8132 6.92528 48.4914 7.75881 47.1696C7.8769 46.9758 7.90469 46.8166 7.83522 46.5883C7.59906 45.7717 7.37677 44.9481 7.16839 44.1177C7.11282 43.8824 7.00169 43.7509 6.77941 43.6402C5.43186 42.9966 4.0982 42.3322 2.75065 41.6955C2.43807 41.5502 2.29915 41.3841 2.31999 41.0243C2.35472 40.2907 2.33388 39.5502 2.33388 38.7544C1.77124 38.7544 1.23639 38.7544 0.694595 38.7544C0.0763893 38.7544 0.0763855 38.7544 0.0763855 39.3841C0.0763855 40.4222 0.0902824 41.4602 0.0694427 42.4983C0.0624962 42.8028 0.173634 42.9412 0.437588 43.0658C1.89627 43.7647 3.34801 44.4845 4.80671 45.1834C5.03593 45.2942 5.12623 45.4533 5.22347 45.6817C5.50826 46.3253 5.34156 46.8374 4.95952 47.398C4.13988 48.616 3.39664 49.8755 2.60478 51.1142C2.47281 51.3149 2.47281 51.4672 2.59784 51.6748C3.50083 53.218 4.39688 54.7682 5.28599 56.3184C5.40408 56.526 5.53605 56.6021 5.77916 56.5883C7.40456 56.4637 9.03691 56.3668 10.6623 56.2422C10.954 56.2215 11.1416 56.3184 11.3639 56.4983C11.864 56.8997 12.0029 57.3564 11.9612 57.9931C11.857 59.4879 11.8431 60.9897 11.7876 62.4845C11.7806 62.7128 11.8431 62.8374 12.0446 62.9481C13.6214 63.8478 15.1981 64.7474 16.761 65.6609C16.9555 65.7717 17.0805 65.7509 17.2542 65.6333C18.6365 64.699 20.0187 63.7786 21.401 62.8512C21.5886 62.7267 21.7483 62.7128 21.9776 62.7405C22.693 62.8305 23.082 63.2249 23.3946 63.8616C24.0267 65.1696 24.756 66.4291 25.4298 67.7163C25.5409 67.9308 25.666 68.007 25.9091 68.007C27.7151 67.9931 29.5211 67.9931 31.3271 68.007C31.5632 68.007 31.6744 67.9308 31.7716 67.7232C32.4871 66.2492 33.2164 64.782 33.9319 63.308C34.0499 63.0658 34.2097 62.9689 34.4528 62.8651C35.0849 62.6021 35.592 62.7474 36.1477 63.1211C37.3771 63.9447 38.6552 64.6921 39.9055 65.481C40.0931 65.5986 40.239 65.6125 40.4334 65.4948C41.9894 64.5883 43.5523 63.6886 45.1221 62.7959C45.3305 62.6782 45.3999 62.5467 45.386 62.3045C45.261 60.6367 45.1429 58.9689 45.0457 57.3011C45.0387 57.1557 45.1221 56.9827 45.2124 56.8512C45.6222 56.2561 46.1779 56.0969 46.9072 56.1523C48.352 56.263 49.7968 56.263 51.2416 56.3253C51.5056 56.3391 51.6584 56.2699 51.7904 56.0346C52.6725 54.4775 53.5755 52.9343 54.4785 51.391C54.5966 51.1903 54.5827 51.0519 54.4508 50.8651C53.5269 49.5087 52.617 48.1454 51.6931 46.7959C51.5473 46.5813 51.5334 46.3876 51.5681 46.1246C51.6653 45.4533 52.0265 45.0796 52.6309 44.789C53.9645 44.1454 55.2496 43.4118 56.5624 42.7336C56.7777 42.6229 56.8472 42.4914 56.8472 42.2492C56.8333 41.1903 56.8333 40.1246 56.8472 39.0658C56.8472 38.8305 56.7847 38.7405 56.5346 38.7474C55.9025 38.7613 55.2704 38.7474 54.5827 38.7474Z" fill="#344689"/>
<path d="M46.6433 38.692C45.907 38.7335 45.1985 38.7751 44.4553 38.8097C44.5734 44.519 42.4478 49.1695 37.8426 52.5882C34.7029 54.9204 31.1187 55.9031 27.2219 55.5986C22.9084 55.2595 19.2894 53.4394 16.4276 50.2007C13.5797 46.9688 12.3086 43.1557 12.4683 38.8304C12.0863 38.8027 11.7181 38.7751 11.35 38.7543C10.9957 38.7335 10.6345 38.7197 10.1969 38.6989C10.058 45.038 12.3433 50.2353 17.3514 54.1245C23.3251 58.7681 31.5285 59.1695 37.9745 55.211C44.7331 51.0726 47.067 43.9861 46.6433 38.692Z" fill="#344689"/>
</g>
<defs>
<clipPath id="clip0_1080_2362">
<rect width="57" height="68" fill="white" transform="matrix(-1 0 0 1 57 0)"/>
</clipPath>
</defs>
</svg>
