<svg width="73" height="82" viewBox="0 0 73 82" fill="none" xmlns="http://www.w3.org/2000/svg">
<rect x="0.575" y="5.575" width="59.8" height="67.85" fill="white" stroke="#344689" stroke-width="1.15"/>
<rect x="0.575" y="17.075" width="59.8" height="56.35" fill="white" stroke="#344689" stroke-width="1.15"/>
<path d="M5 26H15M18 26H28M32 26H42M45 26H55" stroke="#344689" stroke-width="1.15"/>
<path d="M5 35H15M18 35H28M32 35H42M45 35H55" stroke="#344689" stroke-width="1.15"/>
<path d="M5 44H15M18 44H28M32 44H42M45 44H55" stroke="#344689" stroke-width="1.15"/>
<path d="M5 53H15M18 53H28M32 53H42M45 53H55" stroke="#344689" stroke-width="1.15"/>
<path d="M5 62H15M18 62H28" stroke="#344689" stroke-width="1.15"/>
<line x1="14.375" y1="0.00012207" x2="14.375" y2="11.5001" stroke="#344689" stroke-width="1.15"/>
<line x1="46.5752" y1="0.00012207" x2="46.5752" y2="11.5001" stroke="#344689" stroke-width="1.15"/>
<path d="M61 80.75C55.07 80.75 50.25 75.93 50.25 70C50.25 64.07 55.07 59.25 61 59.25C66.93 59.25 71.75 64.07 71.75 70C71.75 75.93 66.93 80.75 61 80.75Z" fill="white"/>
<path d="M61 80.75C55.07 80.75 50.25 75.93 50.25 70C50.25 64.07 55.07 59.25 61 59.25C66.93 59.25 71.75 64.07 71.75 70C71.75 75.93 66.93 80.75 61 80.75ZM61 60.75C55.9 60.75 51.75 64.9 51.75 70C51.75 75.1 55.9 79.25 61 79.25C66.1 79.25 70.25 75.1 70.25 70C70.25 64.9 66.1 60.75 61 60.75Z" fill="#344689"/>
<path d="M64.71 73.93C64.58 73.93 64.45 73.9 64.33 73.82L61.23 71.97C60.46 71.51 59.89 70.5 59.89 69.61V65.51C59.89 65.1 60.23 64.76 60.64 64.76C61.05 64.76 61.39 65.1 61.39 65.51V69.61C61.39 69.97 61.69 70.5 62 70.68L65.1 72.53C65.46 72.74 65.57 73.2 65.36 73.56C65.21 73.8 64.96 73.93 64.71 73.93Z" fill="#344689"/>
</svg>
