<svg width="19" height="19" viewBox="0 0 19 19" fill="none" xmlns="http://www.w3.org/2000/svg">
<path fill-rule="evenodd" clip-rule="evenodd" d="M3.88382 18.1241H0V6.47266H3.88382V18.1241Z" fill="#3F3B3B"/>
<path fill-rule="evenodd" clip-rule="evenodd" d="M1.93036 3.88382H1.9083C0.749284 3.88382 0 3.02035 0 1.94124C0 0.839302 0.772104 0 1.95312 0C3.13413 0 3.86142 0.839302 3.88382 1.94124C3.88382 3.02035 3.13413 3.88382 1.93036 3.88382Z" fill="#3F3B3B"/>
<path fill-rule="evenodd" clip-rule="evenodd" d="M18.124 18.1238H14.3076V12.0335C14.3076 10.5037 13.7553 9.45981 12.3737 9.45981C11.3193 9.45981 10.6912 10.1635 10.4154 10.8432C10.3145 11.0868 10.2897 11.4262 10.2897 11.7664V18.1241H6.47266C6.47266 18.1241 6.52296 7.80848 6.47266 6.74027H10.2897V8.3527C10.7962 7.57758 11.7035 6.47266 13.7298 6.47266C16.2413 6.47266 18.1241 8.10004 18.1241 11.5967L18.124 18.1238Z" fill="#3F3B3B"/>
</svg>
