<svg width="19" height="19" viewBox="0 0 19 19" fill="none" xmlns="http://www.w3.org/2000/svg">
<path fill-rule="evenodd" clip-rule="evenodd" d="M4.4224 18.5622H0.538574V6.91077H4.4224V18.5622Z" fill="white"/>
<path fill-rule="evenodd" clip-rule="evenodd" d="M2.46894 4.32157H2.44688C1.28786 4.32157 0.538574 3.4581 0.538574 2.37899C0.538574 1.27705 1.31068 0.437744 2.49169 0.437744C3.6727 0.437744 4.39999 1.27705 4.4224 2.37899C4.4224 3.4581 3.6727 4.32157 2.46894 4.32157Z" fill="white"/>
<path fill-rule="evenodd" clip-rule="evenodd" d="M18.6626 18.5618H14.8461V12.4714C14.8461 10.9417 14.2938 9.8978 12.9122 9.8978C11.8578 9.8978 11.2298 10.6015 10.9539 11.2812C10.853 11.5248 10.8283 11.8642 10.8283 12.2044V18.5621H7.01123C7.01123 18.5621 7.06153 8.24646 7.01123 7.17826H10.8283V8.79069C11.3348 8.01557 12.242 6.91064 14.2684 6.91064C16.7799 6.91064 18.6627 8.53803 18.6627 12.0347L18.6626 18.5618Z" fill="white"/>
</svg>
