<svg width="85" height="85" viewBox="0 0 85 85" fill="none" xmlns="http://www.w3.org/2000/svg">
<path d="M76.3385 22.5623C76.4996 22.9505 76.542 23.3778 76.4603 23.7901C76.3786 24.2024 76.1765 24.5812 75.8795 24.8786L67.3795 33.3786C67.1818 33.5758 66.9472 33.7321 66.689 33.8386C66.4308 33.945 66.1542 33.9996 65.875 33.9991H54.0047L48.2545 39.7493C48.9027 41.1063 49.0503 42.6488 48.6712 44.1041C48.292 45.5594 47.4107 46.8338 46.1828 47.7021C44.9549 48.5704 43.4596 48.9767 41.9612 48.8491C40.4627 48.7215 39.0576 48.0682 37.9942 47.0049C36.9308 45.9415 36.2776 44.5364 36.15 43.0379C36.0224 41.5395 36.4287 40.0442 37.297 38.8163C38.1653 37.5884 39.4397 36.707 40.895 36.3279C42.3503 35.9488 43.8927 36.0964 45.2497 36.7446L51 30.9943V19.1241C50.9995 18.8448 51.054 18.5682 51.1605 18.3101C51.267 18.0519 51.4233 17.8173 51.6205 17.6196L60.1205 9.11959C60.4177 8.82164 60.7967 8.61864 61.2094 8.53633C61.6221 8.45402 62.05 8.49611 62.4387 8.65726C62.8275 8.81841 63.1596 9.09136 63.3931 9.44152C63.6265 9.79167 63.7507 10.2033 63.75 10.6241V21.2491H74.375C74.7955 21.2492 75.2065 21.374 75.556 21.6078C75.9056 21.8415 76.1779 22.1737 76.3385 22.5623ZM69.2452 25.4991H61.625C61.0614 25.4991 60.5209 25.2752 60.1224 24.8767C59.7239 24.4782 59.5 23.9377 59.5 23.3741V15.7538L55.25 20.0038V29.7491H64.9952L69.2452 25.4991ZM74.8297 31.9378C75.9135 35.2613 76.5 38.8143 76.5 42.4991C76.4984 49.6813 74.2225 56.6786 69.9985 62.4874C65.7746 68.2963 59.8196 72.6183 52.9876 74.8338C46.1556 77.0492 38.7975 77.0442 31.9685 74.8195C25.1395 72.5948 19.1904 68.2647 14.9744 62.4501C10.7583 56.6356 8.49184 49.6352 8.50002 42.453C8.5082 35.2708 10.7906 28.2756 15.0199 22.4706C19.2492 16.6657 25.2081 12.3491 32.0422 10.14C38.8762 7.93084 46.2343 7.94261 53.0612 10.1736L49.6272 13.6076C43.3185 12.0521 36.674 12.6047 30.7089 15.1812C24.7439 17.7576 19.7863 22.216 16.5938 27.8753C13.4013 33.5346 12.1493 40.0835 13.0292 46.5213C13.9092 52.9592 16.8726 58.9319 21.4667 63.5269C26.0608 68.1219 32.0329 71.0865 38.4706 71.9677C44.9083 72.8489 51.4574 71.5982 57.1173 68.4068C62.7772 65.2153 67.2367 60.2587 69.8142 54.2941C72.3918 48.3296 72.9458 41.6851 71.3915 35.3761L74.8297 31.9378ZM63.325 38.2491C64.2378 42.7246 63.6841 47.3751 61.7462 51.5113C59.8083 55.6475 56.5892 59.0491 52.5661 61.212C48.543 63.375 43.93 64.184 39.411 63.5192C34.892 62.8545 30.7074 60.7513 27.4776 57.5215C24.2478 54.2917 22.1446 50.1071 21.4798 45.5881C20.8151 41.0691 21.6241 36.4561 23.787 32.433C25.95 28.4099 29.3516 25.1908 33.4878 23.2529C37.6239 21.315 42.2745 20.7613 46.75 21.6741V26.0346C43.1395 25.1032 39.3229 25.3846 35.8881 26.8356C32.4533 28.2866 29.5908 30.8266 27.7415 34.0644C25.8922 37.3022 25.1588 41.0582 25.6541 44.7539C26.1494 48.4496 27.846 51.8799 30.4826 54.5165C33.1192 57.1531 36.5495 58.8497 40.2452 59.345C43.9408 59.8403 47.6969 59.1068 50.9347 57.2576C54.1725 55.4083 56.7125 52.5458 58.1635 49.111C59.6145 45.6762 59.8959 41.8596 58.9645 38.2491H63.325Z" fill="#333333"/>
</svg>
