<svg width="23" height="18" viewBox="0 0 23 18" fill="none" xmlns="http://www.w3.org/2000/svg">
<g clip-path="url(#clip0_1014_2460)">
<path d="M21.5419 2.37848C20.7764 2.72535 19.9542 2.95973 19.0898 3.06567C19.9817 2.51985 20.649 1.66079 20.9671 0.648792C20.1291 1.15784 19.212 1.51616 18.2556 1.70817C17.6125 1.00585 16.7606 0.540347 15.8322 0.383924C14.9039 0.2275 13.951 0.388909 13.1216 0.843091C12.2921 1.29727 11.6325 2.01882 11.2451 2.8957C10.8577 3.77258 10.7642 4.75574 10.9791 5.69254C9.28116 5.60535 7.6201 5.15399 6.10375 4.36776C4.5874 3.58154 3.24963 2.47801 2.17728 1.12879C1.81061 1.77567 1.59978 2.52567 1.59978 3.32442C1.59937 4.04347 1.77251 4.75152 2.10383 5.38573C2.43516 6.01994 2.91443 6.5607 3.49911 6.96004C2.82103 6.93798 2.15791 6.75059 1.56494 6.41348V6.46973C1.56488 7.47824 1.90597 8.45571 2.53036 9.23629C3.15475 10.0169 4.02397 10.5525 4.99053 10.7522C4.3615 10.9263 3.702 10.952 3.06186 10.8272C3.33457 11.695 3.86577 12.4538 4.58111 12.9975C5.29645 13.5411 6.16012 13.8424 7.05119 13.8591C5.53854 15.0736 3.67042 15.7323 1.74736 15.7294C1.40671 15.7295 1.06635 15.7092 0.728027 15.6685C2.68005 16.9521 4.95234 17.6333 7.27303 17.6307C15.1289 17.6307 19.4234 10.9763 19.4234 5.20504C19.4234 5.01754 19.4189 4.82817 19.4106 4.64067C20.246 4.02283 20.967 3.25776 21.54 2.38129L21.5419 2.37848Z" fill="white"/>
</g>
<defs>
<clipPath id="clip0_1014_2460">
<rect width="22" height="18" fill="white" transform="translate(0.461426)"/>
</clipPath>
</defs>
</svg>
