<svg width="22" height="18" viewBox="0 0 22 18" fill="none" xmlns="http://www.w3.org/2000/svg">
<g clip-path="url(#clip0_1014_2550)">
<path d="M21.0804 2.37885C20.315 2.72572 19.4928 2.9601 18.6284 3.06603C19.5203 2.52021 20.1875 1.66116 20.5057 0.649158C19.6677 1.15821 18.7506 1.51653 17.7942 1.70853C17.151 1.00622 16.2992 0.540714 15.3708 0.38429C14.4425 0.227866 13.4896 0.389275 12.6602 0.843457C11.8307 1.29764 11.1711 2.01918 10.7837 2.89607C10.3963 3.77295 10.3028 4.75611 10.5177 5.69291C8.81973 5.60572 7.15868 5.15436 5.64232 4.36813C4.12597 3.5819 2.78821 2.47837 1.71585 1.12916C1.34918 1.77603 1.13835 2.52603 1.13835 3.32478C1.13794 4.04384 1.31108 4.75188 1.64241 5.38609C1.97373 6.0203 2.453 6.56107 3.03768 6.96041C2.3596 6.93834 1.69649 6.75096 1.10352 6.41385V6.47009C1.10345 7.4786 1.44455 8.45607 2.06894 9.23665C2.69332 10.0172 3.56254 10.5528 4.5291 10.7526C3.90007 10.9267 3.24058 10.9523 2.60043 10.8276C2.87314 11.6954 3.40435 12.4542 4.11969 12.9978C4.83503 13.5415 5.69869 13.8428 6.58977 13.8595C5.07712 15.0739 3.209 15.7327 1.28593 15.7298C0.945284 15.7299 0.604921 15.7095 0.266602 15.6688C2.21862 16.9524 4.49091 17.6337 6.8116 17.631C14.6674 17.631 18.962 10.9767 18.962 5.20541C18.962 5.01791 18.9574 4.82853 18.9492 4.64103C19.7845 4.0232 20.5056 3.25812 21.0786 2.38166L21.0804 2.37885Z" fill="#3F3B3B"/>
</g>
<defs>
<clipPath id="clip0_1014_2550">
<rect width="22" height="18" fill="white"/>
</clipPath>
</defs>
</svg>
