<svg width="80" height="80" viewBox="0 0 80 80" fill="none" xmlns="http://www.w3.org/2000/svg">
<path d="M72.8125 46.0313L59.8125 16.4376C59.7246 16.2278 59.5973 16.0369 59.4375 15.8751C57.6797 14.1194 55.2969 13.1333 52.8125 13.1333C50.3282 13.1333 47.9454 14.1194 46.1875 15.8751C46.0068 16.042 45.8633 16.2452 45.7663 16.4713C45.6694 16.6975 45.6213 16.9415 45.625 17.1876V26.8751H34.375V17.1876C34.3788 16.9415 34.3307 16.6975 34.2338 16.4713C34.1368 16.2452 33.9933 16.042 33.8125 15.8751C32.0547 14.1194 29.6719 13.1333 27.1875 13.1333C24.7032 13.1333 22.3204 14.1194 20.5625 15.8751C20.4028 16.0369 20.2755 16.2278 20.1875 16.4376L7.18754 46.0313C6.15551 48.0311 5.6196 50.2497 5.62504 52.5001C5.62504 56.3125 7.13955 59.9689 9.83538 62.6647C12.5312 65.3605 16.1876 66.875 20 66.8751C23.8125 66.875 27.4689 65.3605 30.1647 62.6647C32.8605 59.9689 34.375 56.3125 34.375 52.5001V30.6251H45.625V52.5001C45.625 56.3125 47.1395 59.9689 49.8354 62.6647C52.5312 65.3605 56.1876 66.875 60 66.8751C63.8125 66.875 67.4689 65.3605 70.1647 62.6647C72.8605 59.9689 74.375 56.3125 74.375 52.5001C74.3805 50.2497 73.8446 48.0311 72.8125 46.0313ZM20 63.1251C18.2955 63.1252 16.6159 62.7153 15.103 61.9299C13.5902 61.1445 12.2886 60.0066 11.308 58.6123C10.3274 57.218 9.69663 55.6083 9.46899 53.919C9.24135 52.2297 9.42349 50.5104 10 48.9063L10.5625 47.5938C11.4326 45.9225 12.7314 44.5127 14.3259 43.5088C15.9203 42.5049 17.753 41.9431 19.6362 41.8808C21.5193 41.8186 23.3851 42.2583 25.0424 43.1548C26.6996 44.0513 28.0886 45.3724 29.067 46.9826C30.0455 48.5928 30.5781 50.4342 30.6104 52.3181C30.6426 54.202 30.1734 56.0606 29.2507 57.7034C28.3279 59.3461 26.985 60.714 25.3594 61.6667C23.7339 62.6194 21.8842 63.1227 20 63.1251ZM20 38.1251C18.0088 38.1211 16.039 38.5363 14.2188 39.3438L23.4688 18.3126C24.4432 17.4416 25.6905 16.9372 26.9964 16.8859C28.3023 16.8346 29.5853 17.2395 30.625 18.0313V42.8126C29.2787 41.3337 27.6379 40.1527 25.8081 39.3454C23.9784 38.5382 22 38.1225 20 38.1251ZM49.375 18.0313C50.4148 17.2395 51.6978 16.8346 53.0037 16.8859C54.3096 16.9372 55.5569 17.4416 56.5313 18.3126L65.7813 39.3438C63.9611 38.5363 61.9913 38.1211 60 38.1251C58.0001 38.1225 56.0217 38.5382 54.1919 39.3454C52.3622 40.1527 50.7214 41.3337 49.375 42.8126V18.0313ZM60 63.1251C58.1159 63.1227 56.2662 62.6194 54.6407 61.6667C53.0151 60.714 51.6721 59.3461 50.7494 57.7034C49.8267 56.0606 49.3574 54.202 49.3897 52.3181C49.422 50.4342 49.9546 48.5928 50.9331 46.9826C51.9115 45.3724 53.3005 44.0513 54.9577 43.1548C56.615 42.2583 58.4808 41.8186 60.3639 41.8808C62.247 41.9431 64.0798 42.5049 65.6742 43.5088C67.2687 44.5127 68.5675 45.9225 69.4375 47.5938L70 48.9063C70.5766 50.5104 70.7587 52.2297 70.5311 53.919C70.3035 55.6083 69.6727 57.218 68.6921 58.6123C67.7115 60.0066 66.4099 61.1445 64.897 61.9299C63.3842 62.7153 61.7046 63.1252 60 63.1251Z" fill="#333333"/>
</svg>
